<svg id="SvgjsSvg1001" width="288" height="288" xmlns="http://www.w3.org/2000/svg" version="1.1" xmlns:xlink="http://www.w3.org/1999/xlink" xmlns:svgjs="http://svgjs.com/svgjs"><defs id="SvgjsDefs1002"></defs><g id="SvgjsG1008" transform="matrix(0.916700005531311,0,0,0.916700005531311,11.995199203491211,11.995199203491211)"><svg xmlns="http://www.w3.org/2000/svg" width="288" height="288" viewBox="0 0 64 64"><path d="M2 60h60v2h-60zM60 56v-49a1 1 0 00-1-1h-1v-3a1 1 0 00-1-1h-16a1 1 0 00-1 1v3h-1a1 1 0 00-1 1v5h-12v-5a1 1 0 00-1-1h-1v-3a1 1 0 00-1-1h-16a1 1 0 00-1 1v3h-1a1 1 0 00-1 1v49h-2v2h60v-2zm-52-52h14v2h-14zm9 52h-4v-3h2v-2h-2v-3h4zm7 0h-5v-9a1 1 0 00-1-1h-6a1 1 0 00-1 1v9h-5v-48h18zm14 0h-12v-36h12zm0-38h-12v-4h12zm4-14h14v2h-14zm9 52h-4v-3h2v-2h-2v-3h4zm7 0h-5v-9a1 1 0 00-1-1h-6a1 1 0 00-1 1v9h-5v-48h18z" fill="#fcb332" class="color000 svgShape"></path><path d="M8 10h2v2h-2zM12 10h2v2h-2zM8 14h2v2h-2zM12 14h2v2h-2zM8 18h2v2h-2zM12 18h2v2h-2zM8 22h2v2h-2zM12 22h2v2h-2zM8 26h2v2h-2zM12 26h2v2h-2zM8 30h2v2h-2zM12 30h2v2h-2zM8 34h2v2h-2zM12 34h2v2h-2zM8 38h2v2h-2zM12 38h2v2h-2zM16 10h2v2h-2zM20 10h2v2h-2zM16 14h2v2h-2zM20 14h2v2h-2zM16 18h2v2h-2zM20 18h2v2h-2zM16 22h2v2h-2zM20 22h2v2h-2zM16 26h2v2h-2zM20 26h2v2h-2zM16 30h2v2h-2zM20 30h2v2h-2zM8 42h2v2h-2zM12 42h2v2h-2zM16 42h2v2h-2zM20 42h2v2h-2zM16 34h2v2h-2zM20 34h2v2h-2zM16 38h2v2h-2zM20 38h2v2h-2zM42 10h2v2h-2zM46 10h2v2h-2zM42 14h2v2h-2zM46 14h2v2h-2zM42 18h2v2h-2zM46 18h2v2h-2zM42 22h2v2h-2zM46 22h2v2h-2zM42 26h2v2h-2zM46 26h2v2h-2zM42 30h2v2h-2zM46 30h2v2h-2zM42 34h2v2h-2zM46 34h2v2h-2zM42 38h2v2h-2zM46 38h2v2h-2zM50 10h2v2h-2zM54 10h2v2h-2zM50 14h2v2h-2zM54 14h2v2h-2zM50 18h2v2h-2zM54 18h2v2h-2zM50 22h2v2h-2zM54 22h2v2h-2zM50 26h2v2h-2zM54 26h2v2h-2zM50 30h2v2h-2zM54 30h2v2h-2zM42 42h2v2h-2zM46 42h2v2h-2zM50 42h2v2h-2zM54 42h2v2h-2zM50 34h2v2h-2zM54 34h2v2h-2zM50 38h2v2h-2zM54 38h2v2h-2z" fill="#fcb332" class="color000 svgShape"></path></svg></g></svg>