<svg id="SvgjsSvg1001" width="288" height="288" xmlns="http://www.w3.org/2000/svg" version="1.1" xmlns:xlink="http://www.w3.org/1999/xlink" xmlns:svgjs="http://svgjs.com/svgjs"><defs id="SvgjsDefs1002"></defs><g id="SvgjsG1008" transform="matrix(0.916700005531311,0,0,0.916700005531311,11.995199203491211,11.995199203491211)"><svg xmlns="http://www.w3.org/2000/svg" width="288" height="288" viewBox="0 0 512 512"><path d="M476,208H448V24a8,8,0,0,0-8-8H72a8,8,0,0,0-8,8V208H36A28.031,28.031,0,0,0,8,236V468a28.031,28.031,0,0,0,28,28H476a28.031,28.031,0,0,0,28-28V236A28.031,28.031,0,0,0,476,208ZM168,32H432V80H168ZM80,32h32V80H80Zm0,64h40a8,8,0,0,0,8-8V32h24V88a8,8,0,0,0,8,8H432v24H317.03a8,8,0,0,0-5.73,13.59L432,257.3V288h-3.48L266.97,122.41a8.019,8.019,0,0,0-5.73-2.41H160a8,8,0,0,0-8,8V288H128V128a8,8,0,0,0-8-8H80Zm352,40v98.38L336.01,136ZM406.17,288H296a8,8,0,0,0-8,8v60.69l-66.34-66.35A8.008,8.008,0,0,0,216,288H168V136h89.87ZM80,136h32V288H80ZM24,314.25l16,4v67.5l-16,4ZM488,468a12.01,12.01,0,0,1-12,12H36a12.01,12.01,0,0,1-12-12V406.25l25.94-6.49A8,8,0,0,0,56,392V312a8,8,0,0,0-6.06-7.76L24,297.75V236a12.01,12.01,0,0,1,12-12H64v72a8,8,0,0,0,8,8H212.69l77.65,77.66A8,8,0,0,0,304,376V304H440a8,8,0,0,0,8-8V224h28a12.01,12.01,0,0,1,12,12Z" fill="#fcb332" class="color000 svgShape"></path><path d="M472 320a8 8 0 00-8 8v48a8 8 0 0016 0V328A8 8 0 00472 320zM400 376a24 24 0 10-24 24A24.027 24.027 0 00400 376zm-32 0a8 8 0 118 8A8.009 8.009 0 01368 376z" fill="#fcb332" class="color000 svgShape"></path><path d="M424 448H386.153C396.889 433.994 424 396.585 424 376a48 48 0 00-96 0c0 20.585 27.111 57.994 37.847 72H272a8 8 0 000 16H424a8 8 0 000-16zM376 344a32.036 32.036 0 0132 32c0 12.175-17.667 39.775-32 58.922-14.333-19.147-32-46.747-32-58.922A32.036 32.036 0 01376 344zM248 448h-8a8 8 0 000 16h8a8 8 0 000-16z" fill="#fcb332" class="color000 svgShape"></path></svg></g></svg>